Coordinates
version=1
nRows=14
nColumns=40
inDegrees=yes

Units are S.I. units (second, meters, Newtons, ...)
If the header above contains a line with 'inDegrees', this indicates whether rotational values are in degrees (yes) or radians (no).

endheader
time	pelvis_tilt	pelvis_list	pelvis_rotation	pelvis_tx	pelvis_ty	pelvis_tz	hip_flexion_r	hip_adduction_r	hip_rotation_r	knee_angle_r	knee_angle_r_beta	ankle_angle_r	subtalar_angle_r	mtp_angle_r	hip_flexion_l	hip_adduction_l	hip_rotation_l	knee_angle_l	knee_angle_l_beta	ankle_angle_l	subtalar_angle_l	mtp_angle_l	lumbar_extension	lumbar_bending	lumbar_rotation	arm_flex_r	arm_add_r	arm_rot_r	elbow_flex_r	pro_sup_r	wrist_flex_r	wrist_dev_r	arm_flex_l	arm_add_l	arm_rot_l	elbow_flex_l	pro_sup_l	wrist_flex_l	wrist_dev_l
      3.06500000	    -34.78277926	      5.07951912	     -6.99444625	     -0.41599485	      0.60793856	     -0.89845477	    107.73072859	    -16.11178300	     10.78277317	    104.68773479	      1.82714566	     32.29309906	      0.00000000	      0.00000000	    104.43301353	    -31.26713442	      3.19573544	    106.55434830	      1.85972421	     39.45740837	      0.00000000	      0.00000000	    -21.51940448	     -6.44924795	      4.99645113	     16.99456919	    -54.14077840	     89.53031317	     90.71441921	     88.69942485	      0.00000000	      0.00000000	     20.94987581	    -58.33930407	     89.54484841	     97.79423911	     88.53804433	      0.00000000	      0.00000000
      3.07000000	    -34.87136118	      5.03867591	     -6.63415839	     -0.41601015	      0.60760286	     -0.89948487	    107.87612372	    -16.55472332	     10.86319118	    104.75454126	      1.82831165	     32.29770209	      0.00000000	      0.00000000	    104.52353522	    -30.74951408	      3.20078941	    106.53914936	      1.85945894	     39.43496149	      0.00000000	      0.00000000	    -21.45230761	     -6.22806459	      4.69408980	     16.98201769	    -54.22216402	     89.52827480	     90.77518337	     88.73944652	      0.00000000	      0.00000000	     20.91273213	    -58.26653486	     89.54422483	     97.79539161	     88.48784023	      0.00000000	      0.00000000
      3.07500000	    -34.90417163	      4.97886690	     -6.47306967	     -0.41596377	      0.60736306	     -0.89989081	    107.93083512	    -16.73947498	     10.89206576	    104.82667805	      1.82957068	     32.11313443	      0.00000000	      0.00000000	    104.61044140	    -30.53256925	      3.25166254	    106.56497868	      1.85990975	     39.43145673	      0.00000000	      0.00000000	    -21.41729956	     -6.08369979	      4.56725403	     16.99638234	    -54.22616747	     89.54084159	     90.68116455	     88.69841135	      0.00000000	      0.00000000	     20.90773781	    -58.20154215	     89.55730589	     97.67714231	     88.35012838	      0.00000000	      0.00000000
      3.08000000	    -34.91114912	      5.00862548	     -6.53478823	     -0.41598746	      0.60724382	     -0.89963263	    107.94680307	    -16.67483818	     10.85486930	    104.82400363	      1.82952400	     32.29049015	      0.00000000	      0.00000000	    104.61762004	    -30.60491680	      3.26807575	    106.57637545	      1.86010866	     39.39948580	      0.00000000	      0.00000000	    -21.41337242	     -6.14374057	      4.60905898	     16.98365444	    -54.26598383	     89.52617594	     90.83881020	     88.74038732	      0.00000000	      0.00000000	     20.88981089	    -58.27686505	     89.54461340	     97.84559526	     88.49092600	      0.00000000	      0.00000000
      3.08500000	    -34.77485880	      5.08054488	     -6.99969762	     -0.41581052	      0.60738928	     -0.89824876	    107.77784842	    -16.11803578	     10.78543409	    104.79534390	      1.82902379	     32.32995251	      0.00000000	      0.00000000	    104.48456436	    -31.24589591	      3.29217024	    106.64961307	      1.86138689	     39.53191959	      0.00000000	      0.00000000	    -21.50915667	     -6.44920880	      4.98741015	     16.99019315	    -54.12313631	     89.53108033	     90.68907904	     88.69759731	      0.00000000	      0.00000000	     20.93702455	    -58.35177024	     89.54583729	     97.83949491	     88.54083872	      0.00000000	      0.00000000
      3.09000000	    -34.81190807	      5.10171946	     -7.04138771	     -0.41587060	      0.60718884	     -0.89811397	    107.83369541	    -16.05871204	     10.79086968	    104.80488589	      1.82919033	     32.35030359	      0.00000000	      0.00000000	    104.53684630	    -31.28046355	      3.31516956	    106.66107691	      1.86158698	     39.49540522	      0.00000000	      0.00000000	    -21.45541265	     -6.48498499	      5.02235658	     16.98196470	    -54.11741572	     89.53083484	     90.67077699	     88.69763739	      0.00000000	      0.00000000	     20.94224146	    -58.36703120	     89.54574097	     97.85353114	     88.54333991	      0.00000000	      0.00000000
      3.09500000	    -34.94575451	      5.10301116	     -6.64490201	     -0.41593241	      0.60674708	     -0.89923235	    108.06823781	    -16.52575864	     10.93311622	    104.87242448	      1.83036910	     32.18593899	      0.00000000	      0.00000000	    104.64963121	    -30.73314121	      3.25212376	    106.65208595	      1.86143005	     39.49750000	      0.00000000	      0.00000000	    -21.32898948	     -6.29010202	      4.68940067	     16.94599204	    -54.19174869	     89.53097406	     90.68301171	     88.72235918	      0.00000000	      0.00000000	     20.92522090	    -58.27877416	     89.55545625	     97.76001579	     88.41503610	      0.00000000	      0.00000000
      3.10000000	    -34.95769586	      5.08326088	     -6.93721435	     -0.41598510	      0.60652832	     -0.89831579	    108.03635968	    -16.16303043	     10.80782711	    104.86197480	      1.83018672	     32.25211472	      0.00000000	      0.00000000	    104.77196955	    -31.13875172	      3.39989223	    106.71943520	      1.86260552	     39.49314399	      0.00000000	      0.00000000	    -21.28416798	     -6.39469189	      4.95303793	     16.94244452	    -54.16431277	     89.52884708	     90.74776427	     88.73272973	      0.00000000	      0.00000000	     20.87483755	    -58.36196280	     89.54511776	     97.87711393	     88.48060171	      0.00000000	      0.00000000
      3.10500000	    -34.81161304	      5.07141672	     -6.93851406	     -0.41562347	      0.60673549	     -0.89822417	    107.86239469	    -16.19131180	     10.80698481	    104.89912616	      1.83083513	     32.44034774	      0.00000000	      0.00000000	    104.57820661	    -31.14417511	      3.38287621	    106.73490480	      1.86287552	     39.58365463	      0.00000000	      0.00000000	    -21.45591742	     -6.40137657	      4.93204999	     16.97308248	    -54.14643839	     89.52875871	     90.72627874	     88.69995714	      0.00000000	      0.00000000	     20.91697145	    -58.33609537	     89.54785944	     97.84132290	     88.55244203	      0.00000000	      0.00000000
      3.11000000	    -34.97822088	      5.08780046	     -6.73150108	     -0.41587056	      0.60627038	     -0.89883214	    108.08095060	    -16.41058793	     10.89049367	    104.85779072	      1.83011369	     32.34535329	      0.00000000	      0.00000000	    104.78218859	    -30.84775443	      3.35874843	    106.74323104	      1.86302084	     39.62403484	      0.00000000	      0.00000000	    -21.28948907	     -6.31329335	      4.74946953	     16.92458391	    -54.18390019	     89.53659547	     90.85383092	     88.66495014	      0.00000000	      0.00000000	     20.87556841	    -58.37584794	     89.56152342	     97.89149030	     88.42414230	      0.00000000	      0.00000000
      3.11500000	    -34.88867056	      5.06713616	     -6.83785268	     -0.41562052	      0.60629131	     -0.89846646	    107.98368359	    -16.30663024	     10.83751565	    104.94178174	      1.83157961	     32.40305112	      0.00000000	      0.00000000	    104.69884415	    -30.98808143	      3.42182852	    106.76028979	      1.86331857	     39.54497082	      0.00000000	      0.00000000	    -21.36515802	     -6.33455591	      4.84682961	     16.96134485	    -54.16465666	     89.53112497	     90.73438243	     88.70755771	      0.00000000	      0.00000000	     20.88320688	    -58.31646484	     89.54652816	     97.82523488	     88.54951928	      0.00000000	      0.00000000
      3.12000000	    -34.93886063	      4.99988310	     -6.71562134	     -0.41558290	      0.60603330	     -0.89869084	    108.02972418	    -16.46491387	     10.78904102	    104.99105007	      1.83243951	     32.45579613	      0.00000000	      0.00000000	    104.80399412	    -30.85929507	      3.46889579	    106.77452126	      1.86356695	     39.54424069	      0.00000000	      0.00000000	    -21.31120235	     -6.21327888	      4.76504432	     16.94039660	    -54.20942480	     89.52934887	     90.76904247	     88.71159604	      0.00000000	      0.00000000	     20.87620082	    -58.29922030	     89.54815826	     97.84675512	     88.54255586	      0.00000000	      0.00000000
      3.12500000	    -34.95210040	      5.06129694	     -6.65512438	     -0.41558111	      0.60584296	     -0.89889577	    108.11719189	    -16.52570774	     10.89198988	    105.02179048	      1.83297603	     32.32391022	      0.00000000	      0.00000000	    104.78428335	    -30.72699729	      3.43910261	    106.78629001	      1.86377236	     39.50402275	      0.00000000	      0.00000000	    -21.28256754	     -6.24057125	      4.68670409	     16.96834598	    -54.23178338	     89.53474590	     90.79985158	     88.74417945	      0.00000000	      0.00000000	     20.88321507	    -58.29185397	     89.55060695	     97.82324065	     88.46374692	      0.00000000	      0.00000000
      3.13000000	    -34.93253744	      5.06267301	     -6.71278804	     -0.41554880	      0.60574432	     -0.89865078	    108.09948570	    -16.44609098	     10.89490541	    105.03893438	      1.83327525	     32.39161344	      0.00000000	      0.00000000	    104.78310161	    -30.82356735	      3.44846900	    106.80472947	      1.86409419	     39.57342107	      0.00000000	      0.00000000	    -21.30210985	     -6.27727298	      4.72126983	     16.97404208	    -54.23072305	     89.53165131	     90.82611865	     88.72239448	      0.00000000	      0.00000000	     20.85690353	    -58.33112253	     89.54672818	     97.88782338	     88.51083299	      0.00000000	      0.00000000
